<svg width="24" height="23" viewBox="0 0 24 23" fill="none" xmlns="http://www.w3.org/2000/svg">
<path d="M9.07 21.9089C9.70671 21.9089 10.2229 21.3927 10.2229 20.756C10.2229 20.1193 9.70671 19.6031 9.07 19.6031C8.43328 19.6031 7.91711 20.1193 7.91711 20.756C7.91711 21.3927 8.43328 21.9089 9.07 21.9089Z" stroke="#333333" stroke-width="2" stroke-linecap="round" stroke-linejoin="round"/>
<path d="M19.4465 21.9089C20.0832 21.9089 20.5994 21.3927 20.5994 20.756C20.5994 20.1193 20.0832 19.6031 19.4465 19.6031C18.8098 19.6031 18.2936 20.1193 18.2936 20.756C18.2936 21.3927 18.8098 21.9089 19.4465 21.9089Z" stroke="#333333" stroke-width="2" stroke-linecap="round" stroke-linejoin="round"/>
<path d="M1 1H4.98268L7.65108 14.332C7.74213 14.7904 7.99151 15.2022 8.35556 15.4953C8.71961 15.7883 9.17515 15.944 9.64242 15.9351H19.3203C19.7876 15.944 20.2431 15.7883 20.6072 15.4953C20.9712 15.2022 21.2206 14.7904 21.3117 14.332L22.9047 5.97835H5.97835" stroke="#333333" stroke-width="2" stroke-linecap="round" stroke-linejoin="round"/>
</svg>
