<svg width="23" height="22" viewBox="0 0 23 22" fill="none" xmlns="http://www.w3.org/2000/svg">
<path d="M10.5554 8H19.5554C20.6554 8 21.5554 8.9 21.5554 10V19C21.5554 20.1 20.6554 21 19.5554 21H10.5554C9.45542 21 8.55542 20.1 8.55542 19V10C8.55542 8.9 9.45542 8 10.5554 8Z" stroke="#333333" stroke-width="2" stroke-linecap="round" stroke-linejoin="round"/>
<path d="M4.55542 14H3.55542C2.45542 14 1.55542 13.1 1.55542 12V3C1.55542 1.9 2.45542 1 3.55542 1H12.5554C13.6554 1 14.5554 1.9 14.5554 3V4" stroke="#333333" stroke-width="2" stroke-linecap="round" stroke-linejoin="round"/>
<path d="M15.0554 17.5V11.5" stroke="#333333" stroke-width="2" stroke-linecap="round" stroke-linejoin="round"/>
<path d="M12.0554 14.5H18.0554" stroke="#333333" stroke-width="2" stroke-linecap="round" stroke-linejoin="round"/>
</svg>
