<svg width="25" height="22" viewBox="0 0 25 22" fill="none" xmlns="http://www.w3.org/2000/svg">
<path d="M21.5514 2.76815C21.022 2.20759 20.3934 1.76292 19.7016 1.45954C19.0097 1.15615 18.2682 1 17.5193 1C16.7704 1 16.0289 1.15615 15.337 1.45954C14.6452 1.76292 14.0166 2.20759 13.4872 2.76815L12.3885 3.93095L11.2898 2.76815C10.2204 1.6364 8.76999 1.00059 7.25766 1.00059C5.74533 1.00059 4.29495 1.6364 3.22557 2.76815C2.15619 3.89989 1.55542 5.43487 1.55542 7.03541C1.55542 8.63594 2.15619 10.1709 3.22557 11.3027L4.32429 12.4655L12.3885 21L20.4527 12.4655L21.5514 11.3027C22.081 10.7424 22.5012 10.0771 22.7879 9.34495C23.0745 8.61276 23.2221 7.82796 23.2221 7.03541C23.2221 6.24285 23.0745 5.45806 22.7879 4.72587C22.5012 3.99368 22.081 3.32844 21.5514 2.76815Z" fill="white" stroke="#BDBDBD" stroke-width="2" stroke-linecap="round" stroke-linejoin="round"/>
</svg>
