<svg width="188" height="39" viewBox="0 0 188 39" fill="none" xmlns="http://www.w3.org/2000/svg">
<path d="M71.8357 9.45703H53.3087L51.2897 30.3261L69.7786 30.3388L70.3627 24.6138H59.2262L60.1532 15.144H63.8865L61.2325 22.7604L68.6357 22.7858L71.277 15.1821L71.8357 9.45703Z" fill="white"/>
<path d="M30.7425 30.3516L33.1298 5.63617L31.2631 5.62348L31.7965 0H41.1171L39.4409 17.137L43.8726 9.45709L51.3139 9.4444L46.7806 17.0608L50.5647 17.0355L48.5076 37.9807H41.0917L42.5901 22.7859H38.7806L38.0695 30.3516H30.7425Z" fill="white"/>
<path d="M21.2817 30.3515L28.6849 30.3261L30.7421 9.45703H23.3389L21.2817 30.3515Z" fill="white"/>
<path d="M0.77356 30.3516L3.16086 5.63617L1.2434 5.62348L1.78943 0H11.1355L8.71007 24.6773H12.418L13.345 15.1821H11.491L12.0244 9.4444H21.2942L19.2625 30.3516H0.77356Z" fill="white"/>
<path fill-rule="evenodd" clip-rule="evenodd" d="M0.609524 31.5449L39.7333 31.621L39.1619 38.1585L0 38.0823L0.609524 31.5322V31.5449ZM188 9.66028H169.448L167.416 30.5674H174.781L176.292 15.3345H179.987L179.619 19.1428H187.06L188 9.58411V9.66028ZM167.429 9.66028L166.87 15.3853L164.216 23.0018H156.825L159.479 15.3853H155.746L154.819 24.8551H165.956L165.371 30.5801H146.883L148.902 9.72375L167.429 9.66028ZM133.714 30.5674H144.838L145.359 24.8678H141.651L142.578 15.3726H146.387L146.933 9.67297H143.124L143.479 5.86475H136.063L133.714 30.5674ZM133.714 9.71105L131.708 30.5928H124.317L125.79 15.3599H122.057L120.635 30.5928H113.295L115.263 9.71105H133.714ZM113.206 9.71105H94.7048L92.6984 30.5674H111.187L111.746 24.8678H100.622L101.587 15.398H105.321L102.667 23.0145H110.07L112.724 15.398L113.283 9.67297L113.206 9.71105ZM92.6984 9.71105L91.9492 17.2513H84.4571L84.6476 15.4107H80.9651L80 24.8678H83.7079L83.9111 22.951H91.3651L90.5905 30.5674H72.0635L74.1206 9.71105H92.6984Z" fill="#E30613"/>
</svg>
