<svg width="16" height="17" viewBox="0 0 16 17" fill="none" xmlns="http://www.w3.org/2000/svg">
<path fill-rule="evenodd" clip-rule="evenodd" d="M0 7.02487C0 3.18569 3.09337 0 7.00079 0C10.8268 0 13.9202 3.18569 13.9202 7.02487C13.9202 8.77787 13.2752 10.3776 12.2101 11.5985C12.2104 11.5987 12.2106 11.5989 12.2109 11.5992L15.7113 14.7032C16.0369 15.0299 16.1183 15.4383 15.7927 15.7651C15.5485 16.0918 15.0601 16.0918 14.7345 15.8467L11.2341 12.7427C11.1847 12.7056 11.1428 12.6628 11.1081 12.6158C9.95992 13.4659 8.53961 13.968 7.00079 13.968C3.17478 13.968 0 10.864 0 7.02487ZM1.30247 7.02487C1.30247 10.1289 3.82601 12.7428 7.00079 12.7428C10.0942 12.7428 12.6177 10.1289 12.6991 7.02487C12.6991 3.83917 10.1756 1.30695 7.00079 1.30695C3.82601 1.30695 1.30247 3.83917 1.30247 7.02487Z" fill="#BDBDBD"/>
</svg>
